<?xml version="1.0" encoding="utf-8"?>
<!-- Generator: Adobe Illustrator 15.0.0, SVG Export Plug-In . SVG Version: 6.00 Build 0)  -->
<!DOCTYPE svg PUBLIC "-//W3C//DTD SVG 1.1//EN" "http://www.w3.org/Graphics/SVG/1.1/DTD/svg11.dtd">
<svg version="1.1" id="图层_1" xmlns="http://www.w3.org/2000/svg" xmlns:xlink="http://www.w3.org/1999/xlink" x="0px" y="0px"
	 width="160px" height="160px" viewBox="0 0 160 160" enable-background="new 0 0 160 160" xml:space="preserve">
<rect fill="#E6EAF3" width="160" height="160"/>
<path fill="#FFFFFF" d="M81.469,100.172l-5.017-8.161l3.278-8.421l-4.425-8.453l0.551-1.159L69.4,67.6C69,67.2,68.6,67,68,66.8
	c-0.6,0-1,0.2-1.4,0.6L52,81.6V53h25.633l1.982-4H52c-2.2,0-4,1.8-4,4v48c0,2.199,1.8,4,4,4h27.117L81.469,100.172z"/>
<g>
	<path fill="#FFFFFF" d="M108,55H82.833l-2.131,4H108v36.6l-11.801-12c-0.799-0.8-1.799-0.8-2.6-0.2L86,90l-2.406-2.378
		l-1.519,4.413l5.008,7.848L81.016,111H108c2.199,0,4-1.801,4-4V59C112,56.8,110.199,55,108,55z"/>
</g>
</svg>
