<?xml version="1.0" encoding="utf-8"?>
<!DOCTYPE svg PUBLIC "-//W3C//DTD SVG 1.1//EN" "http://www.w3.org/Graphics/SVG/1.1/DTD/svg11.dtd">
<svg version="1.1" id="2_1" xmlns="http://www.w3.org/2000/svg" x="0px"
     y="0px"
     width="24px" height="30px" viewBox="0 0 24 30" enable-background="new 0 0 24 30" xml:space="preserve">
<path fill="#D12020" d="M0.781,0H16l8,8v21.219C24,29.65,23.65,30,23.219,30H0.781C0.35,30,0,29.65,0,29.219V0.781
	C0,0.35,0.35,0,0.781,0z"/>
    <path fill="#E06868" d="M16,0v7.219C16,7.65,16.35,8,16.781,8H24L16,0z"/>
    <g>
	<path fill="#FFFFFF" d="M2.596,21.579v-7.158h2.319c0.879,0,1.452,0.036,1.719,0.107c0.41,0.107,0.754,0.341,1.03,0.701
		s0.415,0.825,0.415,1.394c0,0.439-0.08,0.81-0.239,1.108s-0.362,0.535-0.608,0.705c-0.245,0.172-0.495,0.285-0.749,0.34
		c-0.345,0.068-0.845,0.103-1.499,0.103H4.041v2.7H2.596z M4.041,15.632v2.031h0.791c0.569,0,0.95-0.037,1.143-0.112
		s0.343-0.192,0.452-0.352c0.108-0.159,0.163-0.345,0.163-0.557c0-0.261-0.076-0.476-0.229-0.645s-0.347-0.274-0.581-0.317
		c-0.173-0.033-0.52-0.049-1.04-0.049H4.041z"/>
        <path fill="#FFFFFF" d="M9.261,14.421h2.642c0.596,0,1.05,0.045,1.362,0.137c0.42,0.124,0.779,0.343,1.079,0.659
		c0.3,0.315,0.527,0.702,0.684,1.159c0.156,0.458,0.234,1.021,0.234,1.692c0,0.589-0.073,1.097-0.22,1.523
		c-0.179,0.521-0.435,0.942-0.767,1.265c-0.251,0.244-0.589,0.435-1.016,0.571c-0.319,0.101-0.745,0.151-1.279,0.151h-2.72V14.421z
		 M10.706,15.632v4.741h1.079c0.403,0,0.695-0.022,0.874-0.068c0.234-0.059,0.429-0.157,0.584-0.298
		c0.154-0.141,0.28-0.37,0.378-0.691c0.098-0.32,0.146-0.758,0.146-1.311s-0.049-0.979-0.146-1.274s-0.234-0.527-0.41-0.693
		s-0.398-0.278-0.669-0.337c-0.202-0.045-0.598-0.068-1.187-0.068H10.706z"/>
        <path fill="#FFFFFF" d="M16.497,21.579v-7.158h4.907v1.211h-3.462v1.694h2.988v1.211h-2.988v3.042H16.497z"/>
</g>
</svg>
