<?xml version="1.0" encoding="utf-8"?>
<!DOCTYPE svg PUBLIC "-//W3C//DTD SVG 1.1//EN" "http://www.w3.org/Graphics/SVG/1.1/DTD/svg11.dtd">
<svg version="1.1" id="3_1" xmlns="http://www.w3.org/2000/svg" x="0px"
     y="0px"
     width="24px" height="30px" viewBox="0 0 24 30" enable-background="new 0 0 24 30" xml:space="preserve">
<path fill="#E57D1F" d="M0.781,0H16l8,8v21.219C24,29.65,23.65,30,23.219,30H0.781C0.35,30,0,29.65,0,29.219V0.781
	C0,0.35,0.35,0,0.781,0z"/>
    <path fill="#EAA471" d="M16,0v7.219C16,7.65,16.35,8,16.781,8H24L16,0z"/>
    <g>
	<path fill="#FFFFFF" d="M7.613,23.727V12.273h3.711c1.406,0,2.323,0.058,2.75,0.172c0.656,0.172,1.206,0.546,1.648,1.121
		c0.442,0.576,0.664,1.319,0.664,2.23c0,0.703-0.128,1.294-0.383,1.773s-0.579,0.855-0.973,1.129s-0.793,0.454-1.199,0.543
		c-0.552,0.109-1.352,0.164-2.398,0.164H9.926v4.32H7.613z M9.926,14.211v3.25h1.266c0.911,0,1.521-0.06,1.828-0.18
		s0.548-0.308,0.723-0.563s0.262-0.552,0.262-0.891c0-0.417-0.122-0.761-0.367-1.031s-0.555-0.44-0.93-0.508
		c-0.276-0.052-0.831-0.078-1.664-0.078H9.926z"/>
</g>
</svg>
