<?xml version="1.0" encoding="utf-8"?>
<!DOCTYPE svg PUBLIC "-//W3C//DTD SVG 1.1//EN" "http://www.w3.org/Graphics/SVG/1.1/DTD/svg11.dtd">
<svg version="1.1" id="5_1" xmlns="http://www.w3.org/2000/svg" x="0px"
     y="0px"
     width="24px" height="30px" viewBox="0 0 24 30" enable-background="new 0 0 24 30" xml:space="preserve">
<path fill="#4A8DFF" d="M0.781,0H16l8,8v21.219C24,29.65,23.65,30,23.219,30H0.781C0.35,30,0,29.65,0,29.219V0.781
	C0,0.35,0.35,0,0.781,0z"/>
    <path fill="#88B9FF" d="M16,0v7.219C16,7.65,16.35,8,16.781,8H24L16,0z"/>
    <g>
	<path fill="#FFFFFF" d="M7.238,23.852L4.503,12.398H6.87l1.727,7.868l2.094-7.868h2.75l2.008,8l1.758-8h2.328l-2.781,11.454H14.3
		l-2.281-8.563l-2.273,8.563H7.238L7.238,23.852z"/>
</g>
</svg>
